# xmcd
#
# Track frame offsets: 
#        150
#        35192
#        50827
#        81793
#        99773
#        121422
#        129657
#
# Disc length: 2083 seconds
#
# Revision: 0
# Processed by: cddbd v1.5.1PL2 Copyright (c) Steve Scherf et al.
# Submitted via: ExactAudioCopy v0.95a4
#
DISCID=5c082107
DTITLE=Vcam (James Long) - Seg2.1
DYEAR=2003
DGENRE=Elec_IDM
TTITLE0=Hydronium
TTITLE1=Orthogonal Bloom
TTITLE2=Isocln 2M
TTITLE3=Gatpern
TTITLE4=Grapl
TTITLE5=Pluek
TTITLE6=Secant
EXTD=
EXTT0=
EXTT1=
EXTT2=
EXTT3=
EXTT4=
EXTT5=
EXTT6=
PLAYORDER=
